<svg width="50" height="50" viewBox="0 0 50 50" fill="none" xmlns="http://www.w3.org/2000/svg">
<rect width="50" height="50" rx="24" fill="white"/>
<path d="M37.7938 33.571C37.0566 32.8649 36.3391 32.1386 35.6422 31.3928C35.0567 30.7979 34.7041 30.3651 34.7041 30.3651L30.297 28.2609C32.0614 26.2601 33.0352 23.6843 33.0357 21.0167C33.0357 14.9433 28.0934 10 22.0178 10C15.9423 10 11 14.9433 11 21.0167C11 27.09 15.9423 32.0334 22.0178 32.0334C24.7928 32.0334 27.3221 30.9946 29.2629 29.2965L31.3673 33.7032C31.3673 33.7032 31.8001 34.0557 32.3951 34.6412C33.0042 35.2125 33.8054 35.9852 34.5735 36.7926L36.7109 38.9833L37.6616 40L41 36.6619L39.9832 35.7114C39.3867 35.1259 38.5902 34.3484 37.7938 33.571ZM22.0178 28.8857C17.6784 28.8857 14.148 25.3557 14.148 21.0167C14.148 16.6777 17.6784 13.1476 22.0178 13.1476C26.3573 13.1476 29.8877 16.6777 29.8877 21.0167C29.8877 25.3557 26.3573 28.8857 22.0178 28.8857Z" fill="#8D5C29"/>
</svg>
